<svg xmlns="http://www.w3.org/2000/svg" viewBox="0 0 200 200" width="200" height="200" role="img" aria-labelledby="t d"><title id="t">Tempoloon concept 1b favicon</title><desc id="d">Simplified 16px</desc><path d="M24 112 A23.6 23.6 0 0 1 34.2 74 A27.4 27.4 0 0 1 67.9 43.1 A38.5 38.5 0 0 1 132.1 43.1 A27.4 27.4 0 0 1 165.8 74 A23.6 23.6 0 0 1 176 112 C176 148 150 168 110 168 Q84 172 52 196 Q58 174 68 165 C42 159 24 138 24 112Z" fill="none" stroke="#4338CA" stroke-width="14" stroke-linejoin="round"/><path d="M74.5 131.5 A36 36 0 0 1 98.7 70" fill="none" stroke="#2F5DA8" stroke-width="15" stroke-linecap="round"/><path d="M101.3 70 A36 36 0 0 1 132.8 91.1" fill="none" stroke="#B45F06" stroke-width="20" stroke-linecap="round"/><path d="M133.7 93.4 A36 36 0 0 1 125.5 131.5" fill="none" stroke="#B3124F" stroke-width="25" stroke-linecap="round"/></svg>
