<svg xmlns="http://www.w3.org/2000/svg" viewBox="0 0 619 200" width="619" height="200" role="img" aria-labelledby="t d"><title id="t">Attune concept E</title><desc id="d">Attune logo concept E (Pace Wave): speech pace + radio scale + AI spark; palette #2B1810, #C2410C, #0E7490.</desc><g transform="translate(10 0)"><rect x="19" y="70.0" width="10" height="44" rx="5" fill="#C2410C"/><rect x="35" y="46.0" width="10" height="92" rx="5" fill="#C2410C"/><rect x="53" y="26.0" width="10" height="132" rx="5" fill="#C2410C"/><rect x="75" y="40.0" width="10" height="104" rx="5" fill="#C2410C"/><rect x="101" y="56.0" width="10" height="72" rx="5" fill="#C2410C"/><rect x="131" y="70.0" width="10" height="44" rx="5" fill="#C2410C"/><rect x="22.5" y="158" width="3" height="20" rx="1.5" fill="#C2410C"/><rect x="32.5" y="162" width="3" height="12" rx="1.5" fill="#C2410C"/><rect x="42.5" y="162" width="3" height="12" rx="1.5" fill="#C2410C"/><rect x="52.5" y="158" width="3" height="20" rx="1.5" fill="#C2410C"/><rect x="62.5" y="162" width="3" height="12" rx="1.5" fill="#C2410C"/><rect x="72.5" y="162" width="3" height="12" rx="1.5" fill="#C2410C"/><rect x="82.5" y="158" width="3" height="20" rx="1.5" fill="#C2410C"/><rect x="92.5" y="162" width="3" height="12" rx="1.5" fill="#C2410C"/><rect x="102.5" y="162" width="3" height="12" rx="1.5" fill="#C2410C"/><rect x="112.5" y="158" width="3" height="20" rx="1.5" fill="#C2410C"/><rect x="122.5" y="162" width="3" height="12" rx="1.5" fill="#C2410C"/><rect x="132.5" y="162" width="3" height="12" rx="1.5" fill="#C2410C"/><rect x="142.5" y="158" width="3" height="20" rx="1.5" fill="#C2410C"/><rect x="152.5" y="162" width="3" height="12" rx="1.5" fill="#C2410C"/><rect x="162.5" y="162" width="3" height="12" rx="1.5" fill="#C2410C"/><rect x="172.5" y="158" width="3" height="20" rx="1.5" fill="#C2410C"/><rect x="103" y="150" width="6" height="42" rx="3" fill="#0E7490"/><path d="M172 68 Q174.9 83.1 190 86 Q174.9 88.9 172 104 Q169.1 88.9 154 86 Q169.1 83.1 172 68Z" fill="#0E7490"/></g><path d="M252 143.6Q246.9 143.6 242.8 141.7Q238.6 139.8 236.1 135.9Q233.7 132 233.7 126Q233.7 120.6 235.8 117.1Q237.8 113.5 241.7 111.3Q245.5 109.2 250.7 107.8Q255.9 106.5 262.1 105.5Q266.9 104.7 269.7 104.1Q272.5 103.4 273.6 102.3Q274.8 101.2 274.8 99Q274.8 95.4 272.2 93.1Q269.6 90.8 264.6 90.8Q261.4 90.8 258.5 91.9Q255.6 93.1 253.6 95.6Q251.6 98.1 251.1 102.2L235.7 99Q236.5 93.1 239.1 89Q241.7 84.9 245.7 82.3Q249.7 79.7 254.7 78.5Q259.6 77.3 265.1 77.3Q274.1 77.3 280 80.4Q285.9 83.5 288.8 89.8Q291.7 96 291.7 105.5V116.6Q291.7 120.7 291.8 125Q292 129.3 292.1 133.5Q292.3 137.8 292.6 142H277.3Q277.1 138.3 276.9 134.1Q276.7 130 276.6 125.5H275Q273.8 130.5 270.7 134.6Q267.5 138.8 262.8 141.2Q258.1 143.6 252 143.6ZM259.1 131Q261.5 131 263.9 130.1Q266.4 129.3 268.7 127.5Q270.9 125.7 272.6 123Q274.3 120.2 275 116.5L274.9 109.5L277.8 109.6Q276.1 111.2 273.4 112.1Q270.8 113 267.7 113.5Q264.6 114.1 261.6 114.6Q258.6 115.2 256.1 116.2Q253.6 117.1 252.1 118.8Q250.6 120.5 250.6 123.4Q250.6 127 253 129Q255.4 131 259.1 131Z M328 143.4Q317.4 143.4 312.4 137.9Q307.3 132.3 307.3 120.5V92.6H299L299.2 80H303.3Q308.2 79.7 310.4 77.6Q312.6 75.5 313.1 70.8L314.1 64.9H324.1V79H339.6V93.1H324.1V119.5Q324.1 123.9 326.2 125.9Q328.3 127.8 332.1 127.8Q334.2 127.8 336.2 127.3Q338.3 126.8 339.9 125.8V141.6Q336.3 142.7 333.3 143.1Q330.3 143.4 328 143.4Z M373.7 143.4Q363.1 143.4 358.1 137.9Q353 132.3 353 120.5V92.6H344.7L344.9 80H349Q353.9 79.7 356.1 77.6Q358.3 75.5 358.8 70.8L359.8 64.9H369.8V79H385.3V93.1H369.8V119.5Q369.8 123.9 371.9 125.9Q374 127.8 377.9 127.8Q379.9 127.8 382 127.3Q384 126.8 385.6 125.8V141.6Q382 142.7 379 143.1Q376 143.4 373.7 143.4Z M416.4 143.6Q405.6 143.6 400.2 136.2Q394.9 128.8 394.9 113.5V79H412.2V112.1Q412.2 120.9 414.8 125Q417.3 129 422.5 129Q425.7 129 428.2 127.4Q430.7 125.8 432.5 122.7Q434.3 119.6 435.2 115.2Q436.2 110.8 436.3 105.2V79H453.5V114.8L453.6 142H439.2L439.3 120.1H437.7Q436.3 128.3 433.7 133.5Q431 138.7 426.7 141.2Q422.5 143.6 416.4 143.6Z M466.8 142V105.4L466.7 79H481.2L480.9 101.1H482.7Q483.9 93.1 486.6 87.8Q489.3 82.5 493.8 79.9Q498.2 77.3 504.6 77.3Q515.3 77.3 520.8 84.7Q526.2 92.1 526.2 107.6V142H508.9V109.5Q508.9 100.5 506.3 96.3Q503.6 92 498.2 92Q493.7 92 490.5 94.9Q487.4 97.9 485.7 103.3Q484.1 108.8 484 116.5V142Z M568 143.6Q559.9 143.6 553.9 141.4Q547.9 139.1 543.9 134.8Q539.8 130.6 537.8 124.7Q535.8 118.8 535.8 111.6Q535.8 104.4 537.8 98.2Q539.8 91.9 543.7 87.2Q547.6 82.6 553.4 79.9Q559.2 77.3 566.8 77.3Q574.3 77.3 579.9 79.8Q585.5 82.3 589.1 87Q592.8 91.8 594.3 98.4Q595.8 105 595 113.4L546.9 113.9V104.3L583.8 103.8L579.2 109Q579.9 102.9 578.5 98.9Q577 94.9 574.1 92.9Q571.1 90.9 566.9 90.9Q562.3 90.9 559 93.3Q555.8 95.8 554.1 100.3Q552.4 104.8 552.4 111.1Q552.4 121.2 556.6 126.1Q560.7 130.9 568.1 130.9Q571.4 130.9 573.7 130Q576 129.1 577.4 127.5Q578.9 126 579.6 124.1Q580.4 122.1 580.6 120L596 122.3Q595.6 126.7 593.8 130.5Q592 134.4 588.6 137.3Q585.3 140.3 580.2 142Q575.1 143.6 568 143.6Z" fill="#2B1810"/></svg>
