<svg xmlns="http://www.w3.org/2000/svg" viewBox="0 0 200 200" width="200" height="200" role="img" aria-labelledby="t d"><title id="t">Attune symbol D</title><desc id="d">Attune logo concept D (Tuned Mind): brain + radio dial + AI spark; palette #2B1138, #9D2A87, #B45309.</desc><g fill="none" stroke="#9D2A87" stroke-width="9" stroke-linejoin="round" stroke-linecap="round"><path d="M96 34 C70 20 40 36 38 62 C20 72 22 98 36 106 C28 126 46 148 66 142 C74 160 94 158 96 146 Z"/><path d="M104 34 C130 20 160 36 162 62 C180 74 178 98 164 106 C172 126 154 148 134 142 C126 160 106 158 104 146 Z"/><path d="M111 78.9 A22 22 0 1 1 89 78.9"/></g><path d="M100 98 L127.9 78.5" stroke="#B45309" stroke-width="8" stroke-linecap="round"/><circle cx="100" cy="98" r="6" fill="#B45309"/><path d="M172 12 Q174.9 27.1 190 30 Q174.9 32.9 172 48 Q169.1 32.9 154 30 Q169.1 27.1 172 12Z" fill="#B45309"/></svg>
