<svg xmlns="http://www.w3.org/2000/svg" viewBox="0 0 200 200" class="mc"><style>[stroke="#0D1B2A"]{stroke:#0D1B2A}[fill="#0D1B2A"]{fill:#0D1B2A}@media (prefers-color-scheme:dark){[stroke="#0D1B2A"]{stroke:#E0E0FF}[fill="#0D1B2A"]{fill:#E0E0FF}[stroke="#2F5DA8"]{stroke:#8EB4FF}[stroke="#B45F06"]{stroke:#FFB84C}[stroke="#B3124F"]{stroke:#FF6B9A}}</style><title>Attune mascot, heavy</title><g class="mc-body" transform="translate(100 120) scale(1.04) translate(-100 -120)"><path d="M176 112 C176 148 150 168 110 168 Q84 172 52 196 Q58 174 68 165 C42 159 24 138 24 112" fill="none" stroke="#0D1B2A" stroke-width="14" stroke-linejoin="round" stroke-linecap="round" class="mc-stroke"/><path d="M24 112 A23.6 23.6 0 0 1 34.2 74" fill="none" stroke="#B3124F" stroke-width="14.8" stroke-linecap="round" class="mc-arc z-high" data-i="0"/><path d="M34.2 74 A27.4 27.4 0 0 1 67.9 43.1" fill="none" stroke="#B3124F" stroke-width="18.5" stroke-linecap="round" class="mc-arc z-high" data-i="1"/><path d="M67.9 43.1 A38.5 38.5 0 0 1 132.1 43.1" fill="none" stroke="#B3124F" stroke-width="22.2" stroke-linecap="round" class="mc-arc z-high" data-i="2"/><path d="M132.1 43.1 A27.4 27.4 0 0 1 165.8 74" fill="none" stroke="#B3124F" stroke-width="25.9" stroke-linecap="round" class="mc-arc z-high" data-i="3"/><path d="M165.8 74 A23.6 23.6 0 0 1 176 112" fill="none" stroke="#B3124F" stroke-width="29.6" stroke-linecap="round" class="mc-arc z-high" data-i="4"/><path d="M73 116 H91" fill="none" stroke="#0D1B2A" stroke-width="6" stroke-linecap="round" stroke-linejoin="round" class="mc-stroke"/><path d="M109 116 H127" fill="none" stroke="#0D1B2A" stroke-width="6" stroke-linecap="round" stroke-linejoin="round" class="mc-stroke"/><path d="M86 136 q3.5 -4 7 0 t7 0 t7 0" fill="none" stroke="#0D1B2A" stroke-width="4.2" stroke-linecap="round" stroke-linejoin="round" class="mc-stroke"/></g><path d="M152 70 q8 14 0 20 q-8 -6 0 -20z" fill="#2F5DA8" class="mc-sweat" style="animation-delay:0s"/><path d="M38 78 q8 14 0 20 q-8 -6 0 -20z" fill="#2F5DA8" class="mc-sweat" style="animation-delay:1.1s"/></svg>
