<svg xmlns="http://www.w3.org/2000/svg" viewBox="0 0 200 200" width="200" height="200" role="img" aria-labelledby="t d"><title id="t">Tempoloon concept 2 dark</title><desc id="d">Tempoloon concept 2: brain-bubble (round-bottom speech bubble); the 5 brain arcs carry the load scale left to right (blue, orange, magenta), arc thickness grows to the right; small AI spark.</desc><path d="M176 112 C176 148 150 168 110 168 Q84 172 52 196 Q58 174 68 165 C42 159 24 138 24 112" fill="none" stroke="#E0E0FF" stroke-width="9" stroke-linejoin="round" stroke-linecap="round"/><path d="M24 112 A23.6 23.6 0 0 1 34.2 74" fill="none" stroke="#8EB4FF" stroke-width="6" stroke-linecap="round"/><path d="M34.2 74 A27.4 27.4 0 0 1 67.9 43.1" fill="none" stroke="#8EB4FF" stroke-width="7.5" stroke-linecap="round"/><path d="M67.9 43.1 A38.5 38.5 0 0 1 132.1 43.1" fill="none" stroke="#FFB84C" stroke-width="9" stroke-linecap="round"/><path d="M132.1 43.1 A27.4 27.4 0 0 1 165.8 74" fill="none" stroke="#FF6B9A" stroke-width="10.5" stroke-linecap="round"/><path d="M165.8 74 A23.6 23.6 0 0 1 176 112" fill="none" stroke="#FF6B9A" stroke-width="12" stroke-linecap="round"/><path d="M100 98 Q102.2 109.8 114 112 Q102.2 114.2 100 126 Q97.8 114.2 86 112 Q97.8 109.8 100 98Z" fill="#E0E0FF"/></svg>
