<svg xmlns="http://www.w3.org/2000/svg" viewBox="0 0 200 200"><title>Tempoloon</title><style>[stroke="#0D1B2A"]{stroke:#0D1B2A}[stroke="#2F5DA8"]{stroke:#2F5DA8}[stroke="#B45F06"]{stroke:#B45F06}[stroke="#B3124F"]{stroke:#B3124F}@media (prefers-color-scheme:dark){[stroke="#0D1B2A"]{stroke:#E0E0FF}[stroke="#2F5DA8"]{stroke:#8EB4FF}[stroke="#B45F06"]{stroke:#FFB84C}[stroke="#B3124F"]{stroke:#FF6B9A}}</style><path d="M176 112 C176 148 150 168 110 168 Q84 172 52 196 Q58 174 68 165 C42 159 24 138 24 112" fill="none" stroke="#0D1B2A" stroke-width="14" stroke-linejoin="round" stroke-linecap="round"/><path d="M24 112 A23.6 23.6 0 0 1 34.2 74" fill="none" stroke="#2F5DA8" stroke-width="11.4" stroke-linecap="round"/><path d="M34.2 74 A27.4 27.4 0 0 1 67.9 43.1" fill="none" stroke="#2F5DA8" stroke-width="14.2" stroke-linecap="round"/><path d="M67.9 43.1 A38.5 38.5 0 0 1 132.1 43.1" fill="none" stroke="#B45F06" stroke-width="17.1" stroke-linecap="round"/><path d="M132.1 43.1 A27.4 27.4 0 0 1 165.8 74" fill="none" stroke="#B3124F" stroke-width="19.9" stroke-linecap="round"/><path d="M165.8 74 A23.6 23.6 0 0 1 176 112" fill="none" stroke="#B3124F" stroke-width="22.8" stroke-linecap="round"/></svg>
