<svg xmlns="http://www.w3.org/2000/svg" viewBox="0 0 1200 675" width="1200" height="675" role="img" aria-labelledby="t d"><title id="t">Concept H sheet</title><desc id="d">preview</desc><rect width="1200" height="675" fill="#F7F8FF"/><g transform="translate(70 50) scale(1.1)"><g transform="translate(10 0)"><path d="M24 112 A23.6 23.6 0 0 1 34.2 74 A27.4 27.4 0 0 1 67.9 43.1 A38.5 38.5 0 0 1 132.1 43.1 A27.4 27.4 0 0 1 165.8 74 A23.6 23.6 0 0 1 176 112 C176 148 150 168 110 168 Q84 172 52 196 Q58 174 68 165 C42 159 24 138 24 112Z" fill="none" stroke="#4338CA" stroke-width="9" stroke-linejoin="round" stroke-linecap="round"/><circle cx="82" cy="152" r="5" fill="#4338CA"/><circle cx="100" cy="152" r="5" fill="#4338CA"/><circle cx="118" cy="152" r="5" fill="#4338CA"/><line x1="66.5" y1="124.1" x2="55.7" y2="122.2" stroke="#2F5DA8" stroke-width="9.5" stroke-linecap="round"/><line x1="70.6" y1="113" x2="57.9" y2="105.7" stroke="#2F5DA8" stroke-width="9.5" stroke-linecap="round"/><line x1="81" y1="101.8" x2="70.8" y2="86.7" stroke="#2F5DA8" stroke-width="9.5" stroke-linecap="round"/><line x1="97.6" y1="96.1" x2="96.1" y2="74.3" stroke="#B45F06" stroke-width="9.5" stroke-linecap="round"/><line x1="118" y1="101.2" x2="131.5" y2="79.6" stroke="#B3124F" stroke-width="9.5" stroke-linecap="round"/><line x1="132.7" y1="120.6" x2="160.6" y2="112.6" stroke="#B3124F" stroke-width="9.5" stroke-linecap="round"/><line x1="100" y1="130" x2="83.7" y2="82.7" stroke="#0D1B2A" stroke-width="5" stroke-linecap="round"/><circle cx="100" cy="130" r="6" fill="#0D1B2A"/><path d="M78.5 59.6 Q79.8 66.3 86.5 67.6 Q79.8 68.9 78.5 75.6 Q77.2 68.9 70.5 67.6 Q77.2 66.3 78.5 59.6Z" fill="#0D1B2A"/></g><path d="M256.4 143.8Q249.4 143.8 244.6 141.1Q239.8 138.5 237.3 134Q234.8 129.5 234.8 124.1Q234.8 119.6 236.2 115.9Q237.6 112.2 240.7 109.3Q243.7 106.5 249 104.6Q252.6 103.2 257.5 102.2Q262.5 101.2 268.8 100.3Q275.1 99.3 282.7 98.2L276.8 101.4Q276.8 95.7 274 93Q271.3 90.3 264.8 90.3Q261.2 90.3 257.3 92Q253.4 93.8 251.8 98.2L237.1 93.5Q239.5 85.5 246.3 80.4Q253.1 75.4 264.8 75.4Q273.4 75.4 280 78Q286.7 80.7 290.1 87.2Q292 90.8 292.4 94.4Q292.8 98 292.8 102.4V142H278.5V128.7L280.5 131.4Q275.8 138 270.3 140.9Q264.8 143.8 256.4 143.8ZM259.9 131Q264.4 131 267.5 129.4Q270.6 127.8 272.4 125.7Q274.2 123.7 274.9 122.3Q276.1 119.7 276.4 116.2Q276.6 112.7 276.6 110.3L281.4 111.5Q274.1 112.7 269.6 113.5Q265.1 114.3 262.3 115Q259.6 115.7 257.5 116.4Q255.1 117.4 253.6 118.5Q252.1 119.6 251.4 120.9Q250.8 122.3 250.8 123.9Q250.8 126.1 251.9 127.7Q253 129.3 255 130.1Q257.1 131 259.9 131Z M347.2 142Q340.5 143.3 334.1 143.1Q327.6 143 322.5 140.8Q317.5 138.7 314.8 134Q312.4 129.5 312.3 124.9Q312.2 120.3 312.2 114.5V59.2H328.5V113.6Q328.5 117.3 328.6 120.4Q328.7 123.4 329.8 125.2Q332 128.6 336.7 128.9Q341.5 129.2 347.2 128.4ZM301.2 89.8V77.2H347.2V89.8Z M400.5 142Q393.8 143.3 387.4 143.1Q380.9 143 375.8 140.8Q370.8 138.7 368.1 134Q365.7 129.5 365.6 124.9Q365.5 120.3 365.5 114.5V59.2H381.8V113.6Q381.8 117.3 381.9 120.4Q382 123.4 383.1 125.2Q385.3 128.6 390 128.9Q394.8 129.2 400.5 128.4ZM354.4 89.8V77.2H400.5V89.8Z M439 143.9Q431.4 143.9 426.6 141.3Q421.8 138.8 419.1 134.8Q416.5 130.8 415.3 126.6Q414.2 122.3 414 118.7Q413.7 115.2 413.7 113.6V77.2H430.3V107.8Q430.3 110 430.5 113.5Q430.8 116.9 432 120.4Q433.3 123.9 436.1 126.2Q439 128.6 444.2 128.6Q446.3 128.6 448.7 127.9Q451.1 127.2 453.2 125.3Q455.3 123.5 456.6 119.8Q458 116.1 458 110.1L467.4 114.5Q467.4 122.2 464.2 128.9Q461.1 135.6 454.9 139.8Q448.6 143.9 439 143.9ZM460 142V120.5H458V77.2H474.4V142Z M535.4 142V111.4Q535.4 109.2 535.2 105.7Q534.9 102.3 533.7 98.8Q532.4 95.3 529.5 93Q526.7 90.6 521.5 90.6Q519.4 90.6 517 91.3Q514.6 92 512.5 93.9Q510.4 95.7 509 99.4Q507.7 103.1 507.7 109.1L498.3 104.7Q498.3 97 501.4 90.3Q504.6 83.6 510.8 79.4Q517.1 75.3 526.6 75.3Q534.3 75.3 539.1 77.9Q543.9 80.4 546.5 84.4Q549.2 88.4 550.3 92.7Q551.5 96.9 551.7 100.5Q552 104 552 105.6V142ZM491.1 142V77.2H505.6V98.7H507.7V142Z M597.7 143.8Q587.7 143.8 580.1 139.5Q572.5 135.2 568.2 127.7Q564 120.2 564 110.4Q564 99.8 568.2 92Q572.4 84.1 579.7 79.8Q587.1 75.4 596.7 75.4Q606.9 75.4 614.1 80.2Q621.2 85 624.6 93.7Q628 102.4 627 114.2H610.9V108.2Q610.9 98.3 607.7 93.9Q604.6 89.6 597.4 89.6Q589.1 89.6 585.2 94.6Q581.2 99.7 581.2 109.6Q581.2 118.7 585.2 123.6Q589.1 128.6 596.7 128.6Q601.5 128.6 604.9 126.5Q608.4 124.4 610.2 120.4L626.5 125.1Q622.8 134 614.9 138.9Q607 143.8 597.7 143.8ZM576.2 114.2V102H619.2V114.2Z" fill="#0D1B2A"/></g><rect x="680" y="270" width="450" height="190" rx="18" fill="#0F1428"/><g transform="translate(710 300) scale(.62)"><g transform="translate(10 0)"><path d="M24 112 A23.6 23.6 0 0 1 34.2 74 A27.4 27.4 0 0 1 67.9 43.1 A38.5 38.5 0 0 1 132.1 43.1 A27.4 27.4 0 0 1 165.8 74 A23.6 23.6 0 0 1 176 112 C176 148 150 168 110 168 Q84 172 52 196 Q58 174 68 165 C42 159 24 138 24 112Z" fill="none" stroke="#B9BBFF" stroke-width="9" stroke-linejoin="round" stroke-linecap="round"/><circle cx="82" cy="152" r="5" fill="#B9BBFF"/><circle cx="100" cy="152" r="5" fill="#B9BBFF"/><circle cx="118" cy="152" r="5" fill="#B9BBFF"/><line x1="66.5" y1="124.1" x2="55.7" y2="122.2" stroke="#8EB4FF" stroke-width="9.5" stroke-linecap="round"/><line x1="70.6" y1="113" x2="57.9" y2="105.7" stroke="#8EB4FF" stroke-width="9.5" stroke-linecap="round"/><line x1="81" y1="101.8" x2="70.8" y2="86.7" stroke="#8EB4FF" stroke-width="9.5" stroke-linecap="round"/><line x1="97.6" y1="96.1" x2="96.1" y2="74.3" stroke="#FFB84C" stroke-width="9.5" stroke-linecap="round"/><line x1="118" y1="101.2" x2="131.5" y2="79.6" stroke="#FF6B9A" stroke-width="9.5" stroke-linecap="round"/><line x1="132.7" y1="120.6" x2="160.6" y2="112.6" stroke="#FF6B9A" stroke-width="9.5" stroke-linecap="round"/><line x1="100" y1="130" x2="83.7" y2="82.7" stroke="#E0E0FF" stroke-width="5" stroke-linecap="round"/><circle cx="100" cy="130" r="6" fill="#E0E0FF"/><path d="M78.5 59.6 Q79.8 66.3 86.5 67.6 Q79.8 68.9 78.5 75.6 Q77.2 68.9 70.5 67.6 Q77.2 66.3 78.5 59.6Z" fill="#E0E0FF"/></g><path d="M256.4 143.8Q249.4 143.8 244.6 141.1Q239.8 138.5 237.3 134Q234.8 129.5 234.8 124.1Q234.8 119.6 236.2 115.9Q237.6 112.2 240.7 109.3Q243.7 106.5 249 104.6Q252.6 103.2 257.5 102.2Q262.5 101.2 268.8 100.3Q275.1 99.3 282.7 98.2L276.8 101.4Q276.8 95.7 274 93Q271.3 90.3 264.8 90.3Q261.2 90.3 257.3 92Q253.4 93.8 251.8 98.2L237.1 93.5Q239.5 85.5 246.3 80.4Q253.1 75.4 264.8 75.4Q273.4 75.4 280 78Q286.7 80.7 290.1 87.2Q292 90.8 292.4 94.4Q292.8 98 292.8 102.4V142H278.5V128.7L280.5 131.4Q275.8 138 270.3 140.9Q264.8 143.8 256.4 143.8ZM259.9 131Q264.4 131 267.5 129.4Q270.6 127.8 272.4 125.7Q274.2 123.7 274.9 122.3Q276.1 119.7 276.4 116.2Q276.6 112.7 276.6 110.3L281.4 111.5Q274.1 112.7 269.6 113.5Q265.1 114.3 262.3 115Q259.6 115.7 257.5 116.4Q255.1 117.4 253.6 118.5Q252.1 119.6 251.4 120.9Q250.8 122.3 250.8 123.9Q250.8 126.1 251.9 127.7Q253 129.3 255 130.1Q257.1 131 259.9 131Z M347.2 142Q340.5 143.3 334.1 143.1Q327.6 143 322.5 140.8Q317.5 138.7 314.8 134Q312.4 129.5 312.3 124.9Q312.2 120.3 312.2 114.5V59.2H328.5V113.6Q328.5 117.3 328.6 120.4Q328.7 123.4 329.8 125.2Q332 128.6 336.7 128.9Q341.5 129.2 347.2 128.4ZM301.2 89.8V77.2H347.2V89.8Z M400.5 142Q393.8 143.3 387.4 143.1Q380.9 143 375.8 140.8Q370.8 138.7 368.1 134Q365.7 129.5 365.6 124.9Q365.5 120.3 365.5 114.5V59.2H381.8V113.6Q381.8 117.3 381.9 120.4Q382 123.4 383.1 125.2Q385.3 128.6 390 128.9Q394.8 129.2 400.5 128.4ZM354.4 89.8V77.2H400.5V89.8Z M439 143.9Q431.4 143.9 426.6 141.3Q421.8 138.8 419.1 134.8Q416.5 130.8 415.3 126.6Q414.2 122.3 414 118.7Q413.7 115.2 413.7 113.6V77.2H430.3V107.8Q430.3 110 430.5 113.5Q430.8 116.9 432 120.4Q433.3 123.9 436.1 126.2Q439 128.6 444.2 128.6Q446.3 128.6 448.7 127.9Q451.1 127.2 453.2 125.3Q455.3 123.5 456.6 119.8Q458 116.1 458 110.1L467.4 114.5Q467.4 122.2 464.2 128.9Q461.1 135.6 454.9 139.8Q448.6 143.9 439 143.9ZM460 142V120.5H458V77.2H474.4V142Z M535.4 142V111.4Q535.4 109.2 535.2 105.7Q534.9 102.3 533.7 98.8Q532.4 95.3 529.5 93Q526.7 90.6 521.5 90.6Q519.4 90.6 517 91.3Q514.6 92 512.5 93.9Q510.4 95.7 509 99.4Q507.7 103.1 507.7 109.1L498.3 104.7Q498.3 97 501.4 90.3Q504.6 83.6 510.8 79.4Q517.1 75.3 526.6 75.3Q534.3 75.3 539.1 77.9Q543.9 80.4 546.5 84.4Q549.2 88.4 550.3 92.7Q551.5 96.9 551.7 100.5Q552 104 552 105.6V142ZM491.1 142V77.2H505.6V98.7H507.7V142Z M597.7 143.8Q587.7 143.8 580.1 139.5Q572.5 135.2 568.2 127.7Q564 120.2 564 110.4Q564 99.8 568.2 92Q572.4 84.1 579.7 79.8Q587.1 75.4 596.7 75.4Q606.9 75.4 614.1 80.2Q621.2 85 624.6 93.7Q628 102.4 627 114.2H610.9V108.2Q610.9 98.3 607.7 93.9Q604.6 89.6 597.4 89.6Q589.1 89.6 585.2 94.6Q581.2 99.7 581.2 109.6Q581.2 118.7 585.2 123.6Q589.1 128.6 596.7 128.6Q601.5 128.6 604.9 126.5Q608.4 124.4 610.2 120.4L626.5 125.1Q622.8 134 614.9 138.9Q607 143.8 597.7 143.8ZM576.2 114.2V102H619.2V114.2Z" fill="#E0E0FF"/></g><g transform="translate(70 300) scale(.5)"><g transform="translate(10 0)"><path d="M24 112 A23.6 23.6 0 0 1 34.2 74 A27.4 27.4 0 0 1 67.9 43.1 A38.5 38.5 0 0 1 132.1 43.1 A27.4 27.4 0 0 1 165.8 74 A23.6 23.6 0 0 1 176 112 C176 148 150 168 110 168 Q84 172 52 196 Q58 174 68 165 C42 159 24 138 24 112Z" fill="none" stroke="#0D1B2A" stroke-width="9" stroke-linejoin="round" stroke-linecap="round"/><circle cx="82" cy="152" r="5" fill="#0D1B2A"/><circle cx="100" cy="152" r="5" fill="#0D1B2A"/><circle cx="118" cy="152" r="5" fill="#0D1B2A"/><line x1="66.5" y1="124.1" x2="55.7" y2="122.2" stroke="#0D1B2A" stroke-width="9.5" stroke-linecap="round"/><line x1="70.6" y1="113" x2="57.9" y2="105.7" stroke="#0D1B2A" stroke-width="9.5" stroke-linecap="round"/><line x1="81" y1="101.8" x2="70.8" y2="86.7" stroke="#0D1B2A" stroke-width="9.5" stroke-linecap="round"/><line x1="97.6" y1="96.1" x2="96.1" y2="74.3" stroke="#0D1B2A" stroke-width="9.5" stroke-linecap="round"/><line x1="118" y1="101.2" x2="131.5" y2="79.6" stroke="#0D1B2A" stroke-width="9.5" stroke-linecap="round"/><line x1="132.7" y1="120.6" x2="160.6" y2="112.6" stroke="#0D1B2A" stroke-width="9.5" stroke-linecap="round"/><line x1="100" y1="130" x2="83.7" y2="82.7" stroke="#0D1B2A" stroke-width="5" stroke-linecap="round"/><circle cx="100" cy="130" r="6" fill="#0D1B2A"/><path d="M78.5 59.6 Q79.8 66.3 86.5 67.6 Q79.8 68.9 78.5 75.6 Q77.2 68.9 70.5 67.6 Q77.2 66.3 78.5 59.6Z" fill="#0D1B2A"/></g><path d="M256.4 143.8Q249.4 143.8 244.6 141.1Q239.8 138.5 237.3 134Q234.8 129.5 234.8 124.1Q234.8 119.6 236.2 115.9Q237.6 112.2 240.7 109.3Q243.7 106.5 249 104.6Q252.6 103.2 257.5 102.2Q262.5 101.2 268.8 100.3Q275.1 99.3 282.7 98.2L276.8 101.4Q276.8 95.7 274 93Q271.3 90.3 264.8 90.3Q261.2 90.3 257.3 92Q253.4 93.8 251.8 98.2L237.1 93.5Q239.5 85.5 246.3 80.4Q253.1 75.4 264.8 75.4Q273.4 75.4 280 78Q286.7 80.7 290.1 87.2Q292 90.8 292.4 94.4Q292.8 98 292.8 102.4V142H278.5V128.7L280.5 131.4Q275.8 138 270.3 140.9Q264.8 143.8 256.4 143.8ZM259.9 131Q264.4 131 267.5 129.4Q270.6 127.8 272.4 125.7Q274.2 123.7 274.9 122.3Q276.1 119.7 276.4 116.2Q276.6 112.7 276.6 110.3L281.4 111.5Q274.1 112.7 269.6 113.5Q265.1 114.3 262.3 115Q259.6 115.7 257.5 116.4Q255.1 117.4 253.6 118.5Q252.1 119.6 251.4 120.9Q250.8 122.3 250.8 123.9Q250.8 126.1 251.9 127.7Q253 129.3 255 130.1Q257.1 131 259.9 131Z M347.2 142Q340.5 143.3 334.1 143.1Q327.6 143 322.5 140.8Q317.5 138.7 314.8 134Q312.4 129.5 312.3 124.9Q312.2 120.3 312.2 114.5V59.2H328.5V113.6Q328.5 117.3 328.6 120.4Q328.7 123.4 329.8 125.2Q332 128.6 336.7 128.9Q341.5 129.2 347.2 128.4ZM301.2 89.8V77.2H347.2V89.8Z M400.5 142Q393.8 143.3 387.4 143.1Q380.9 143 375.8 140.8Q370.8 138.7 368.1 134Q365.7 129.5 365.6 124.9Q365.5 120.3 365.5 114.5V59.2H381.8V113.6Q381.8 117.3 381.9 120.4Q382 123.4 383.1 125.2Q385.3 128.6 390 128.9Q394.8 129.2 400.5 128.4ZM354.4 89.8V77.2H400.5V89.8Z M439 143.9Q431.4 143.9 426.6 141.3Q421.8 138.8 419.1 134.8Q416.5 130.8 415.3 126.6Q414.2 122.3 414 118.7Q413.7 115.2 413.7 113.6V77.2H430.3V107.8Q430.3 110 430.5 113.5Q430.8 116.9 432 120.4Q433.3 123.9 436.1 126.2Q439 128.6 444.2 128.6Q446.3 128.6 448.7 127.9Q451.1 127.2 453.2 125.3Q455.3 123.5 456.6 119.8Q458 116.1 458 110.1L467.4 114.5Q467.4 122.2 464.2 128.9Q461.1 135.6 454.9 139.8Q448.6 143.9 439 143.9ZM460 142V120.5H458V77.2H474.4V142Z M535.4 142V111.4Q535.4 109.2 535.2 105.7Q534.9 102.3 533.7 98.8Q532.4 95.3 529.5 93Q526.7 90.6 521.5 90.6Q519.4 90.6 517 91.3Q514.6 92 512.5 93.9Q510.4 95.7 509 99.4Q507.7 103.1 507.7 109.1L498.3 104.7Q498.3 97 501.4 90.3Q504.6 83.6 510.8 79.4Q517.1 75.3 526.6 75.3Q534.3 75.3 539.1 77.9Q543.9 80.4 546.5 84.4Q549.2 88.4 550.3 92.7Q551.5 96.9 551.7 100.5Q552 104 552 105.6V142ZM491.1 142V77.2H505.6V98.7H507.7V142Z M597.7 143.8Q587.7 143.8 580.1 139.5Q572.5 135.2 568.2 127.7Q564 120.2 564 110.4Q564 99.8 568.2 92Q572.4 84.1 579.7 79.8Q587.1 75.4 596.7 75.4Q606.9 75.4 614.1 80.2Q621.2 85 624.6 93.7Q628 102.4 627 114.2H610.9V108.2Q610.9 98.3 607.7 93.9Q604.6 89.6 597.4 89.6Q589.1 89.6 585.2 94.6Q581.2 99.7 581.2 109.6Q581.2 118.7 585.2 123.6Q589.1 128.6 596.7 128.6Q601.5 128.6 604.9 126.5Q608.4 124.4 610.2 120.4L626.5 125.1Q622.8 134 614.9 138.9Q607 143.8 597.7 143.8ZM576.2 114.2V102H619.2V114.2Z" fill="#0D1B2A"/></g><g transform="translate(70 420) scale(.5)"><path d="M24 112 A23.6 23.6 0 0 1 34.2 74 A27.4 27.4 0 0 1 67.9 43.1 A38.5 38.5 0 0 1 132.1 43.1 A27.4 27.4 0 0 1 165.8 74 A23.6 23.6 0 0 1 176 112 C176 148 150 168 110 168 Q84 172 52 196 Q58 174 68 165 C42 159 24 138 24 112Z" fill="none" stroke="#4338CA" stroke-width="14" stroke-linejoin="round"/><line x1="56" y1="142" x2="56" y2="122" stroke="#2F5DA8" stroke-width="24" stroke-linecap="round"/><line x1="100" y1="142" x2="100" y2="96" stroke="#B45F06" stroke-width="24" stroke-linecap="round"/><line x1="144" y1="142" x2="144" y2="68" stroke="#B3124F" stroke-width="24" stroke-linecap="round"/></g><g transform="translate(240 420) scale(.16)"><path d="M24 112 A23.6 23.6 0 0 1 34.2 74 A27.4 27.4 0 0 1 67.9 43.1 A38.5 38.5 0 0 1 132.1 43.1 A27.4 27.4 0 0 1 165.8 74 A23.6 23.6 0 0 1 176 112 C176 148 150 168 110 168 Q84 172 52 196 Q58 174 68 165 C42 159 24 138 24 112Z" fill="none" stroke="#4338CA" stroke-width="14" stroke-linejoin="round"/><line x1="56" y1="142" x2="56" y2="122" stroke="#2F5DA8" stroke-width="24" stroke-linecap="round"/><line x1="100" y1="142" x2="100" y2="96" stroke="#B45F06" stroke-width="24" stroke-linecap="round"/><line x1="144" y1="142" x2="144" y2="68" stroke="#B3124F" stroke-width="24" stroke-linecap="round"/></g><g transform="translate(300 420) scale(.08)"><path d="M24 112 A23.6 23.6 0 0 1 34.2 74 A27.4 27.4 0 0 1 67.9 43.1 A38.5 38.5 0 0 1 132.1 43.1 A27.4 27.4 0 0 1 165.8 74 A23.6 23.6 0 0 1 176 112 C176 148 150 168 110 168 Q84 172 52 196 Q58 174 68 165 C42 159 24 138 24 112Z" fill="none" stroke="#4338CA" stroke-width="14" stroke-linejoin="round"/><line x1="56" y1="142" x2="56" y2="122" stroke="#2F5DA8" stroke-width="24" stroke-linecap="round"/><line x1="100" y1="142" x2="100" y2="96" stroke="#B45F06" stroke-width="24" stroke-linecap="round"/><line x1="144" y1="142" x2="144" y2="68" stroke="#B3124F" stroke-width="24" stroke-linecap="round"/></g><g transform="translate(70 515)"><path d="M0.7 0 8.5 -21.8H12.6L20.5 0H16.9L12.7 -12.1Q12.2 -13.6 11.6 -15.6Q11 -17.6 10.2 -20.4H10.9Q10.1 -17.6 9.5 -15.6Q8.9 -13.6 8.5 -12.1L4.4 0ZM5 -5.8V-8.5H16.3V-5.8Z M27 -21.8V0H23.7V-21.8Z  M46.6 -16.4V-13.8H37.7V-16.4ZM40.1 -20.3H43.3V-4.4Q43.3 -3.4 43.8 -3Q44.2 -2.5 45.1 -2.5Q45.4 -2.5 45.8 -2.6Q46.2 -2.6 46.5 -2.7L47.1 -0.1Q46.6 0.1 46 0.1Q45.4 0.2 44.8 0.2Q42.6 0.2 41.4 -0.9Q40.1 -2.1 40.1 -4.2Z M53 -9.7V0H49.8V-21.8H53V-12.4H52.6Q53.3 -14.6 54.7 -15.6Q56 -16.6 58 -16.6Q59.6 -16.6 60.9 -15.9Q62.1 -15.2 62.8 -13.8Q63.5 -12.4 63.5 -10.4V0H60.3V-10Q60.3 -11.8 59.4 -12.8Q58.5 -13.8 56.9 -13.8Q55.8 -13.8 54.9 -13.3Q54 -12.8 53.5 -11.9Q53 -11 53 -9.7Z M72.4 0.4Q70.9 0.4 69.6 -0.2Q68.4 -0.8 67.6 -1.9Q66.9 -3 66.9 -4.6Q66.9 -6 67.4 -6.9Q68 -7.8 68.9 -8.3Q69.8 -8.9 70.9 -9.1Q72.1 -9.4 73.2 -9.5Q74.7 -9.7 75.6 -9.8Q76.5 -9.9 76.9 -10.2Q77.3 -10.4 77.3 -11V-11.1Q77.3 -12 77 -12.6Q76.6 -13.3 75.9 -13.6Q75.2 -14 74.2 -14Q73.1 -14 72.4 -13.6Q71.6 -13.3 71.1 -12.8Q70.6 -12.3 70.4 -11.7L67.4 -12.5Q67.9 -14 69 -14.9Q70 -15.8 71.4 -16.2Q72.7 -16.6 74.2 -16.6Q75.1 -16.6 76.3 -16.3Q77.4 -16.1 78.4 -15.5Q79.3 -14.9 79.9 -13.8Q80.6 -12.6 80.6 -10.9V0H77.4V-2.2H77.3Q77 -1.6 76.3 -1Q75.7 -0.4 74.7 -0Q73.8 0.4 72.4 0.4ZM73.2 -2.2Q74.5 -2.2 75.4 -2.7Q76.4 -3.3 76.9 -4.1Q77.4 -4.9 77.4 -5.9V-8Q77.2 -7.8 76.7 -7.7Q76.2 -7.5 75.6 -7.4Q74.9 -7.3 74.4 -7.3Q73.8 -7.2 73.4 -7.1Q72.5 -7 71.7 -6.7Q71 -6.5 70.5 -5.9Q70.1 -5.4 70.1 -4.6Q70.1 -3.8 70.5 -3.3Q70.9 -2.8 71.6 -2.5Q72.3 -2.2 73.2 -2.2Z M91.9 -16.4V-13.8H83V-16.4ZM85.4 -20.3H88.6V-4.4Q88.6 -3.4 89.1 -3Q89.5 -2.5 90.4 -2.5Q90.7 -2.5 91.1 -2.6Q91.5 -2.6 91.8 -2.7L92.4 -0.1Q91.8 0.1 91.3 0.1Q90.7 0.2 90.1 0.2Q87.9 0.2 86.6 -0.9Q85.4 -2.1 85.4 -4.2Z  M107.7 0.4Q106.1 0.4 104.9 -0.2Q103.6 -0.8 102.9 -1.9Q102.2 -3 102.2 -4.6Q102.2 -6 102.7 -6.9Q103.2 -7.8 104.1 -8.3Q105.1 -8.9 106.2 -9.1Q107.3 -9.4 108.5 -9.5Q109.9 -9.7 110.8 -9.8Q111.7 -9.9 112.2 -10.2Q112.6 -10.4 112.6 -11V-11.1Q112.6 -12 112.2 -12.6Q111.9 -13.3 111.2 -13.6Q110.5 -14 109.4 -14Q108.4 -14 107.6 -13.6Q106.9 -13.3 106.4 -12.8Q105.9 -12.3 105.7 -11.7L102.6 -12.5Q103.2 -14 104.2 -14.9Q105.3 -15.8 106.6 -16.2Q108 -16.6 109.4 -16.6Q110.4 -16.6 111.5 -16.3Q112.6 -16.1 113.6 -15.5Q114.6 -14.9 115.2 -13.8Q115.8 -12.6 115.8 -10.9V0H112.7V-2.2H112.5Q112.2 -1.6 111.6 -1Q111 -0.4 110 -0Q109 0.4 107.7 0.4ZM108.4 -2.2Q109.7 -2.2 110.7 -2.7Q111.6 -3.3 112.1 -4.1Q112.6 -4.9 112.6 -5.9V-8Q112.4 -7.8 111.9 -7.7Q111.4 -7.5 110.8 -7.4Q110.2 -7.3 109.6 -7.3Q109 -7.2 108.6 -7.1Q107.7 -7 107 -6.7Q106.2 -6.5 105.8 -5.9Q105.3 -5.4 105.3 -4.6Q105.3 -3.8 105.7 -3.3Q106.1 -2.8 106.8 -2.5Q107.5 -2.2 108.4 -2.2Z M127.2 -16.4V-13.8H118.3V-16.4ZM120.7 -20.3H123.9V-4.4Q123.9 -3.4 124.3 -3Q124.7 -2.5 125.7 -2.5Q125.9 -2.5 126.3 -2.6Q126.7 -2.6 127 -2.7L127.6 -0.1Q127.1 0.1 126.5 0.1Q125.9 0.2 125.4 0.2Q123.1 0.2 121.9 -0.9Q120.7 -2.1 120.7 -4.2Z M137.4 -16.4V-13.8H128.5V-16.4ZM130.9 -20.3H134.1V-4.4Q134.1 -3.4 134.5 -3Q134.9 -2.5 135.9 -2.5Q136.1 -2.5 136.5 -2.6Q137 -2.6 137.2 -2.7L137.8 -0.1Q137.3 0.1 136.7 0.1Q136.1 0.2 135.6 0.2Q133.3 0.2 132.1 -0.9Q130.9 -2.1 130.9 -4.2Z M146.1 0.2Q144.5 0.2 143.2 -0.5Q142 -1.2 141.3 -2.6Q140.6 -4 140.6 -6V-16.4H143.8V-6.4Q143.8 -4.6 144.7 -3.6Q145.6 -2.6 147.2 -2.6Q148.3 -2.6 149.2 -3.1Q150.1 -3.6 150.6 -4.5Q151.1 -5.4 151.1 -6.7V-16.4H154.3V0H151.2L151.2 -4H151.5Q150.8 -1.8 149.4 -0.8Q148 0.2 146.1 0.2Z M161.8 -9.7V0H158.6V-16.4H161.7L161.7 -12.4H161.4Q162.1 -14.6 163.5 -15.6Q164.8 -16.6 166.8 -16.6Q168.4 -16.6 169.7 -15.9Q170.9 -15.2 171.6 -13.8Q172.3 -12.4 172.3 -10.4V0H169.1V-10Q169.1 -11.8 168.2 -12.8Q167.3 -13.8 165.6 -13.8Q164.6 -13.8 163.7 -13.3Q162.8 -12.8 162.3 -11.9Q161.8 -11 161.8 -9.7Z M183.7 0.3Q181.3 0.3 179.5 -0.7Q177.8 -1.7 176.8 -3.6Q175.9 -5.5 175.9 -8.1Q175.9 -10.6 176.8 -12.5Q177.8 -14.4 179.5 -15.5Q181.2 -16.6 183.4 -16.6Q184.8 -16.6 186.2 -16.1Q187.5 -15.7 188.5 -14.7Q189.5 -13.7 190.1 -12.1Q190.8 -10.6 190.8 -8.4V-7.2H177.7V-9.6H189.1L187.6 -8.8Q187.6 -10.3 187.1 -11.5Q186.7 -12.6 185.7 -13.3Q184.8 -13.9 183.4 -13.9Q182.1 -13.9 181.1 -13.3Q180.1 -12.6 179.6 -11.5Q179.1 -10.4 179.1 -9.2V-7.5Q179.1 -5.9 179.7 -4.7Q180.3 -3.5 181.3 -2.9Q182.4 -2.3 183.8 -2.3Q184.7 -2.3 185.4 -2.6Q186.1 -2.8 186.7 -3.4Q187.2 -3.9 187.5 -4.6L190.5 -3.9Q190.1 -2.7 189.2 -1.7Q188.2 -0.7 186.9 -0.2Q185.5 0.3 183.7 0.3Z M200.2 0.3Q198.4 0.3 197 -0.2Q195.6 -0.7 194.7 -1.7Q193.8 -2.7 193.5 -4.1L196.6 -4.8Q196.9 -3.5 197.8 -2.9Q198.8 -2.3 200.2 -2.3Q201.7 -2.3 202.7 -2.9Q203.6 -3.6 203.6 -4.5Q203.6 -5.3 203 -5.8Q202.5 -6.3 201.3 -6.6L198.5 -7.2Q196.3 -7.7 195.1 -8.8Q194 -9.9 194 -11.7Q194 -13.2 194.8 -14.3Q195.7 -15.4 197.1 -16Q198.5 -16.6 200.4 -16.6Q202.1 -16.6 203.4 -16.1Q204.6 -15.6 205.4 -14.6Q206.2 -13.7 206.6 -12.5L203.7 -11.9Q203.4 -12.7 202.6 -13.4Q201.8 -14 200.4 -14Q199.1 -14 198.2 -13.4Q197.3 -12.8 197.3 -11.9Q197.3 -11.1 197.9 -10.6Q198.5 -10.1 199.8 -9.8L202.4 -9.2Q204.7 -8.7 205.8 -7.6Q206.9 -6.5 206.9 -4.8Q206.9 -3.3 206.1 -2.1Q205.2 -1 203.7 -0.3Q202.2 0.3 200.2 0.3Z  M225.4 -16.4V-13.8H216.6V-16.4ZM219 -20.3H222.2V-4.4Q222.2 -3.4 222.6 -3Q223 -2.5 224 -2.5Q224.2 -2.5 224.6 -2.6Q225 -2.6 225.3 -2.7L225.9 -0.1Q225.4 0.1 224.8 0.1Q224.2 0.2 223.6 0.2Q221.4 0.2 220.2 -0.9Q219 -2.1 219 -4.2Z M235.5 0.3Q233.2 0.3 231.5 -0.7Q229.8 -1.8 228.8 -3.7Q227.9 -5.6 227.9 -8.1Q227.9 -10.7 228.8 -12.6Q229.8 -14.5 231.5 -15.5Q233.2 -16.6 235.5 -16.6Q237.9 -16.6 239.6 -15.5Q241.3 -14.5 242.2 -12.6Q243.2 -10.7 243.2 -8.1Q243.2 -5.6 242.2 -3.7Q241.3 -1.8 239.6 -0.7Q237.9 0.3 235.5 0.3ZM235.5 -2.4Q237 -2.4 238 -3.2Q239 -4 239.5 -5.3Q239.9 -6.6 239.9 -8.1Q239.9 -9.7 239.5 -11Q239 -12.3 238 -13.1Q237 -13.9 235.5 -13.9Q234 -13.9 233.1 -13.1Q232.1 -12.3 231.6 -11Q231.2 -9.7 231.2 -8.1Q231.2 -6.6 231.6 -5.3Q232.1 -4 233.1 -3.2Q234 -2.4 235.5 -2.4Z  M254.6 5.9 255.3 3.3 255.7 3.4Q256.5 3.6 257.2 3.5Q257.9 3.4 258.4 2.9Q258.9 2.3 259.1 1.3L259.5 0.1L253.3 -16.4H256.8L260 -7.1Q260.5 -5.5 260.9 -4Q261.3 -2.5 261.7 -0.9H260.7Q261.1 -2.5 261.5 -4Q261.9 -5.5 262.4 -7.1L265.7 -16.4H269.2L262.1 2.3Q261.6 3.6 260.8 4.5Q260.1 5.4 259.1 5.8Q258.1 6.2 256.8 6.2Q256 6.2 255.4 6.1Q254.8 6 254.6 5.9Z M278.9 0.3Q276.6 0.3 274.9 -0.7Q273.2 -1.8 272.2 -3.7Q271.3 -5.6 271.3 -8.1Q271.3 -10.7 272.2 -12.6Q273.2 -14.5 274.9 -15.5Q276.6 -16.6 278.9 -16.6Q281.2 -16.6 282.9 -15.5Q284.7 -14.5 285.6 -12.6Q286.6 -10.7 286.6 -8.1Q286.6 -5.6 285.6 -3.7Q284.7 -1.8 282.9 -0.7Q281.2 0.3 278.9 0.3ZM278.9 -2.4Q280.4 -2.4 281.4 -3.2Q282.4 -4 282.8 -5.3Q283.3 -6.6 283.3 -8.1Q283.3 -9.7 282.8 -11Q282.4 -12.3 281.4 -13.1Q280.4 -13.9 278.9 -13.9Q277.4 -13.9 276.5 -13.1Q275.5 -12.3 275 -11Q274.5 -9.7 274.5 -8.1Q274.5 -6.6 275 -5.3Q275.5 -4 276.5 -3.2Q277.4 -2.4 278.9 -2.4Z M295.7 0.2Q294.1 0.2 292.8 -0.5Q291.5 -1.2 290.8 -2.6Q290.1 -4 290.1 -6V-16.4H293.4V-6.4Q293.4 -4.6 294.3 -3.6Q295.2 -2.6 296.8 -2.6Q297.9 -2.6 298.8 -3.1Q299.6 -3.6 300.1 -4.5Q300.6 -5.4 300.6 -6.7V-16.4H303.9V0H300.8L300.8 -4H301.1Q300.3 -1.8 299 -0.8Q297.6 0.2 295.7 0.2Z M310.6 0.2Q309.7 0.2 309 -0.4Q308.4 -1 308.4 -1.9Q308.4 -2.8 309 -3.5Q309.7 -4.1 310.6 -4.1Q311.5 -4.1 312.1 -3.5Q312.7 -2.8 312.7 -1.9Q312.7 -1 312.1 -0.4Q311.5 0.2 310.6 0.2Z" fill="#0D1B2A" transform="scale(.8)"/></g><rect x="80" y="565" width="96" height="60" rx="10" fill="#0D1B2A" stroke="#0003"/><rect x="190" y="565" width="96" height="60" rx="10" fill="#4338CA" stroke="#0003"/><rect x="300" y="565" width="96" height="60" rx="10" fill="#E0E0FF" stroke="#0003"/><rect x="410" y="565" width="96" height="60" rx="10" fill="#F7F8FF" stroke="#0003"/><rect x="520" y="565" width="96" height="60" rx="10" fill="#2F5DA8" stroke="#0003"/><rect x="630" y="565" width="96" height="60" rx="10" fill="#B45F06" stroke="#0003"/><rect x="740" y="565" width="96" height="60" rx="10" fill="#B3124F" stroke="#0003"/></svg>
