<svg xmlns="http://www.w3.org/2000/svg" viewBox="0 0 200 200" class="mc" style="overflow:visible;--shake:0"><style>[stroke="#0D1B2A"]{stroke:#0D1B2A}[fill="#0D1B2A"]{fill:#0D1B2A}@media (prefers-color-scheme:dark){[stroke="#0D1B2A"]{stroke:#E0E0FF}[fill="#0D1B2A"]{fill:#E0E0FF}[stroke="#2F5DA8"]{stroke:#8EB4FF}[stroke="#B45F06"]{stroke:#FFB84C}[stroke="#B3124F"]{stroke:#FF6B9A}}</style><title>Attune mascot, character A (glasses)</title><g class="mc-shake"><g class="mc-breath"><g class="mc-body" transform="translate(100 120) scale(1) translate(-100 -120)"><path d="M24 112 A23.6 23.6 0 0 1 34.2 74 A27.4 27.4 0 0 1 67.9 43.1 A38.5 38.5 0 0 1 132.1 43.1 A27.4 27.4 0 0 1 165.8 74 A23.6 23.6 0 0 1 176 112 C176 148 150 168 110 168 Q84 172 52 196 Q58 174 68 165 C42 159 24 138 24 112Z" fill="#3E8E5A" fill-opacity="0.26" stroke="none" class="mc-tint"/><path d="M176 112 C176 148 150 168 110 168 Q84 172 52 196 Q58 174 68 165 C42 159 24 138 24 112" fill="none" stroke="#2F5DA8" stroke-width="12" stroke-linejoin="round" stroke-linecap="round" class="mc-rim z-calm"/><path d="M24 112 A23.6 23.6 0 0 1 34.2 74" fill="none" stroke="#2F5DA8" stroke-width="8" stroke-linecap="round" class="mc-arc z-calm" data-i="0" data-w="11.4"/><path d="M34.2 74 A27.4 27.4 0 0 1 67.9 43.1" fill="none" stroke="#2F5DA8" stroke-width="9.9" stroke-linecap="round" class="mc-arc z-calm" data-i="1" data-w="14.2"/><path d="M67.9 43.1 A38.5 38.5 0 0 1 132.1 43.1" fill="none" stroke="#2F5DA8" stroke-width="12" stroke-linecap="round" class="mc-arc z-calm" data-i="2" data-w="17.1"/><path d="M132.1 43.1 A27.4 27.4 0 0 1 165.8 74" fill="none" stroke="#2F5DA8" stroke-width="13.9" stroke-linecap="round" class="mc-arc z-calm" data-i="3" data-w="19.9"/><path d="M165.8 74 A23.6 23.6 0 0 1 176 112" fill="none" stroke="#2F5DA8" stroke-width="16" stroke-linecap="round" class="mc-arc z-calm" data-i="4" data-w="22.8"/><circle cx="82" cy="112" r="6.7" fill="#0D1B2A" class="mc-fill"/><circle cx="118" cy="112" r="6.7" fill="#0D1B2A" class="mc-fill"/><path d="M88 130 Q100 140 112 130" fill="none" stroke="#0D1B2A" stroke-width="4.5" stroke-linecap="round" stroke-linejoin="round" class="mc-stroke"/><circle cx="82" cy="113" r="15" fill="none" stroke="#0D1B2A" stroke-width="3.6" class="mc-stroke"/><circle cx="118" cy="113" r="15" fill="none" stroke="#0D1B2A" stroke-width="3.6" class="mc-stroke"/><path d="M97 112 H103" fill="none" stroke="#0D1B2A" stroke-width="3.6" stroke-linecap="round" stroke-linejoin="round" class="mc-stroke"/></g></g></g></svg>
